<mxfile host="app.diagrams.net" agent="Mozilla/5.0 (Windows NT 10.0; Win64; x64; rv:133.0) Gecko/20100101 Firefox/133.0" version="25.0.1" pages="3">
  <diagram id="C5RBs43oDa-KdzZeNtuy" name="Page-1">
    <mxGraphModel dx="2754" dy="578" grid="1" gridSize="10" guides="1" tooltips="1" connect="1" arrows="1" fold="1" page="1" pageScale="1" pageWidth="827" pageHeight="1169" math="0" shadow="0">
      <root>
        <mxCell id="WIyWlLk6GJQsqaUBKTNV-0" />
        <mxCell id="WIyWlLk6GJQsqaUBKTNV-1" parent="WIyWlLk6GJQsqaUBKTNV-0" />
        <mxCell id="e77cdDmP9BwfHs4r40R--40" style="edgeStyle=orthogonalEdgeStyle;rounded=0;orthogonalLoop=1;jettySize=auto;html=1;exitX=0;exitY=0.5;exitDx=0;exitDy=0;entryX=1;entryY=0.5;entryDx=0;entryDy=0;" parent="WIyWlLk6GJQsqaUBKTNV-1" source="e77cdDmP9BwfHs4r40R--48" target="e77cdDmP9BwfHs4r40R--75" edge="1">
          <mxGeometry relative="1" as="geometry" />
        </mxCell>
        <mxCell id="e77cdDmP9BwfHs4r40R--41" value="Осуществляет" style="edgeLabel;html=1;align=center;verticalAlign=middle;resizable=0;points=[];" parent="e77cdDmP9BwfHs4r40R--40" vertex="1" connectable="0">
          <mxGeometry x="0.4833" y="3" relative="1" as="geometry">
            <mxPoint x="26" y="-13" as="offset" />
          </mxGeometry>
        </mxCell>
        <mxCell id="e77cdDmP9BwfHs4r40R--42" style="edgeStyle=orthogonalEdgeStyle;rounded=0;orthogonalLoop=1;jettySize=auto;html=1;exitX=0;exitY=0.75;exitDx=0;exitDy=0;entryX=1;entryY=0.5;entryDx=0;entryDy=0;" parent="WIyWlLk6GJQsqaUBKTNV-1" source="e77cdDmP9BwfHs4r40R--48" target="e77cdDmP9BwfHs4r40R--61" edge="1">
          <mxGeometry relative="1" as="geometry">
            <Array as="points">
              <mxPoint x="1230" y="200" />
              <mxPoint x="1230" y="270" />
            </Array>
          </mxGeometry>
        </mxCell>
        <mxCell id="e77cdDmP9BwfHs4r40R--43" value="Оставляет" style="edgeLabel;html=1;align=center;verticalAlign=middle;resizable=0;points=[];" parent="e77cdDmP9BwfHs4r40R--42" vertex="1" connectable="0">
          <mxGeometry x="0.8188" y="1" relative="1" as="geometry">
            <mxPoint x="25" y="-11" as="offset" />
          </mxGeometry>
        </mxCell>
        <mxCell id="e77cdDmP9BwfHs4r40R--44" style="edgeStyle=orthogonalEdgeStyle;rounded=0;orthogonalLoop=1;jettySize=auto;html=1;exitX=0.25;exitY=1;exitDx=0;exitDy=0;entryX=1;entryY=0.5;entryDx=0;entryDy=0;" parent="WIyWlLk6GJQsqaUBKTNV-1" source="e77cdDmP9BwfHs4r40R--48" target="e77cdDmP9BwfHs4r40R--78" edge="1">
          <mxGeometry relative="1" as="geometry" />
        </mxCell>
        <mxCell id="e77cdDmP9BwfHs4r40R--45" value="Подписывает" style="edgeLabel;html=1;align=center;verticalAlign=middle;resizable=0;points=[];" parent="e77cdDmP9BwfHs4r40R--44" vertex="1" connectable="0">
          <mxGeometry x="0.7707" relative="1" as="geometry">
            <mxPoint x="36" y="-10" as="offset" />
          </mxGeometry>
        </mxCell>
        <mxCell id="e77cdDmP9BwfHs4r40R--46" style="edgeStyle=orthogonalEdgeStyle;rounded=0;orthogonalLoop=1;jettySize=auto;html=1;exitX=0.5;exitY=1;exitDx=0;exitDy=0;entryX=1;entryY=0.25;entryDx=0;entryDy=0;" parent="WIyWlLk6GJQsqaUBKTNV-1" source="e77cdDmP9BwfHs4r40R--48" target="e77cdDmP9BwfHs4r40R--58" edge="1">
          <mxGeometry relative="1" as="geometry" />
        </mxCell>
        <mxCell id="e77cdDmP9BwfHs4r40R--47" value="Покупает" style="edgeLabel;html=1;align=center;verticalAlign=middle;resizable=0;points=[];" parent="e77cdDmP9BwfHs4r40R--46" vertex="1" connectable="0">
          <mxGeometry x="0.5021" y="-1" relative="1" as="geometry">
            <mxPoint x="13" y="-9" as="offset" />
          </mxGeometry>
        </mxCell>
        <mxCell id="e77cdDmP9BwfHs4r40R--48" value="Клиент" style="whiteSpace=wrap;html=1;align=center;" parent="WIyWlLk6GJQsqaUBKTNV-1" vertex="1">
          <mxGeometry x="1260" y="170" width="100" height="40" as="geometry" />
        </mxCell>
        <mxCell id="e77cdDmP9BwfHs4r40R--49" style="edgeStyle=orthogonalEdgeStyle;rounded=0;orthogonalLoop=1;jettySize=auto;html=1;exitX=0;exitY=0.25;exitDx=0;exitDy=0;entryX=1;entryY=0.75;entryDx=0;entryDy=0;" parent="WIyWlLk6GJQsqaUBKTNV-1" source="e77cdDmP9BwfHs4r40R--53" target="e77cdDmP9BwfHs4r40R--58" edge="1">
          <mxGeometry relative="1" as="geometry" />
        </mxCell>
        <mxCell id="e77cdDmP9BwfHs4r40R--50" value="Устанавливает" style="edgeLabel;html=1;align=center;verticalAlign=middle;resizable=0;points=[];" parent="e77cdDmP9BwfHs4r40R--49" vertex="1" connectable="0">
          <mxGeometry x="0.4118" y="3" relative="1" as="geometry">
            <mxPoint x="15" y="-13" as="offset" />
          </mxGeometry>
        </mxCell>
        <mxCell id="e77cdDmP9BwfHs4r40R--51" style="edgeStyle=orthogonalEdgeStyle;rounded=0;orthogonalLoop=1;jettySize=auto;html=1;exitX=0.5;exitY=1;exitDx=0;exitDy=0;entryX=1;entryY=0.5;entryDx=0;entryDy=0;" parent="WIyWlLk6GJQsqaUBKTNV-1" source="e77cdDmP9BwfHs4r40R--53" target="e77cdDmP9BwfHs4r40R--79" edge="1">
          <mxGeometry relative="1" as="geometry" />
        </mxCell>
        <mxCell id="e77cdDmP9BwfHs4r40R--52" value="Выполняет" style="edgeLabel;html=1;align=center;verticalAlign=middle;resizable=0;points=[];" parent="e77cdDmP9BwfHs4r40R--51" vertex="1" connectable="0">
          <mxGeometry x="-0.0353" y="2" relative="1" as="geometry">
            <mxPoint x="-28" y="-12" as="offset" />
          </mxGeometry>
        </mxCell>
        <mxCell id="e77cdDmP9BwfHs4r40R--53" value="Бригада монтажников" style="whiteSpace=wrap;html=1;align=center;" parent="WIyWlLk6GJQsqaUBKTNV-1" vertex="1">
          <mxGeometry x="1210" y="430" width="100" height="40" as="geometry" />
        </mxCell>
        <mxCell id="e77cdDmP9BwfHs4r40R--54" style="edgeStyle=orthogonalEdgeStyle;rounded=0;orthogonalLoop=1;jettySize=auto;html=1;exitX=0;exitY=0.75;exitDx=0;exitDy=0;entryX=1;entryY=0.25;entryDx=0;entryDy=0;" parent="WIyWlLk6GJQsqaUBKTNV-1" source="e77cdDmP9BwfHs4r40R--58" target="e77cdDmP9BwfHs4r40R--59" edge="1">
          <mxGeometry relative="1" as="geometry" />
        </mxCell>
        <mxCell id="e77cdDmP9BwfHs4r40R--55" value="Находится на" style="edgeLabel;html=1;align=center;verticalAlign=middle;resizable=0;points=[];" parent="e77cdDmP9BwfHs4r40R--54" vertex="1" connectable="0">
          <mxGeometry x="0.2933" relative="1" as="geometry">
            <mxPoint x="12" y="-10" as="offset" />
          </mxGeometry>
        </mxCell>
        <mxCell id="e77cdDmP9BwfHs4r40R--56" style="edgeStyle=orthogonalEdgeStyle;rounded=0;orthogonalLoop=1;jettySize=auto;html=1;exitX=0.5;exitY=1;exitDx=0;exitDy=0;entryX=0.5;entryY=0;entryDx=0;entryDy=0;" parent="WIyWlLk6GJQsqaUBKTNV-1" source="e77cdDmP9BwfHs4r40R--58" target="e77cdDmP9BwfHs4r40R--79" edge="1">
          <mxGeometry relative="1" as="geometry" />
        </mxCell>
        <mxCell id="e77cdDmP9BwfHs4r40R--57" value="Переходит на" style="edgeLabel;html=1;align=center;verticalAlign=middle;resizable=0;points=[];" parent="e77cdDmP9BwfHs4r40R--56" vertex="1" connectable="0">
          <mxGeometry x="-0.1" y="-1" relative="1" as="geometry">
            <mxPoint as="offset" />
          </mxGeometry>
        </mxCell>
        <mxCell id="e77cdDmP9BwfHs4r40R--58" value="Оборудование" style="whiteSpace=wrap;html=1;align=center;" parent="WIyWlLk6GJQsqaUBKTNV-1" vertex="1">
          <mxGeometry x="1030" y="410" width="100" height="40" as="geometry" />
        </mxCell>
        <mxCell id="e77cdDmP9BwfHs4r40R--59" value="Склад" style="whiteSpace=wrap;html=1;align=center;" parent="WIyWlLk6GJQsqaUBKTNV-1" vertex="1">
          <mxGeometry x="850" y="430" width="100" height="40" as="geometry" />
        </mxCell>
        <mxCell id="e77cdDmP9BwfHs4r40R--60" value="Содержит" style="edgeStyle=orthogonalEdgeStyle;rounded=0;orthogonalLoop=1;jettySize=auto;html=1;exitX=0.5;exitY=1;exitDx=0;exitDy=0;" parent="WIyWlLk6GJQsqaUBKTNV-1" source="e77cdDmP9BwfHs4r40R--61" target="e77cdDmP9BwfHs4r40R--78" edge="1">
          <mxGeometry relative="1" as="geometry" />
        </mxCell>
        <mxCell id="e77cdDmP9BwfHs4r40R--61" value="Заявка" style="whiteSpace=wrap;html=1;align=center;" parent="WIyWlLk6GJQsqaUBKTNV-1" vertex="1">
          <mxGeometry x="1030" y="250" width="100" height="40" as="geometry" />
        </mxCell>
        <mxCell id="e77cdDmP9BwfHs4r40R--62" style="edgeStyle=orthogonalEdgeStyle;rounded=0;orthogonalLoop=1;jettySize=auto;html=1;exitX=1;exitY=0.5;exitDx=0;exitDy=0;entryX=0;entryY=0.5;entryDx=0;entryDy=0;" parent="WIyWlLk6GJQsqaUBKTNV-1" source="e77cdDmP9BwfHs4r40R--72" target="e77cdDmP9BwfHs4r40R--75" edge="1">
          <mxGeometry relative="1" as="geometry" />
        </mxCell>
        <mxCell id="e77cdDmP9BwfHs4r40R--63" value="Обрабатывает" style="edgeLabel;html=1;align=center;verticalAlign=middle;resizable=0;points=[];" parent="e77cdDmP9BwfHs4r40R--62" vertex="1" connectable="0">
          <mxGeometry x="-0.2762" y="4" relative="1" as="geometry">
            <mxPoint x="13" y="-6" as="offset" />
          </mxGeometry>
        </mxCell>
        <mxCell id="e77cdDmP9BwfHs4r40R--64" style="edgeStyle=orthogonalEdgeStyle;rounded=0;orthogonalLoop=1;jettySize=auto;html=1;exitX=0.5;exitY=1;exitDx=0;exitDy=0;entryX=0;entryY=0.25;entryDx=0;entryDy=0;" parent="WIyWlLk6GJQsqaUBKTNV-1" source="e77cdDmP9BwfHs4r40R--72" target="e77cdDmP9BwfHs4r40R--58" edge="1">
          <mxGeometry relative="1" as="geometry" />
        </mxCell>
        <mxCell id="e77cdDmP9BwfHs4r40R--65" value="Продает" style="edgeLabel;html=1;align=center;verticalAlign=middle;resizable=0;points=[];" parent="e77cdDmP9BwfHs4r40R--64" vertex="1" connectable="0">
          <mxGeometry x="0.7191" y="2" relative="1" as="geometry">
            <mxPoint x="-24" y="-8" as="offset" />
          </mxGeometry>
        </mxCell>
        <mxCell id="e77cdDmP9BwfHs4r40R--66" style="edgeStyle=orthogonalEdgeStyle;rounded=0;orthogonalLoop=1;jettySize=auto;html=1;exitX=1;exitY=0.75;exitDx=0;exitDy=0;entryX=0;entryY=0.5;entryDx=0;entryDy=0;" parent="WIyWlLk6GJQsqaUBKTNV-1" source="e77cdDmP9BwfHs4r40R--72" target="e77cdDmP9BwfHs4r40R--61" edge="1">
          <mxGeometry relative="1" as="geometry">
            <Array as="points">
              <mxPoint x="930" y="200" />
              <mxPoint x="930" y="270" />
            </Array>
          </mxGeometry>
        </mxCell>
        <mxCell id="e77cdDmP9BwfHs4r40R--67" value="Контролирует" style="edgeLabel;html=1;align=center;verticalAlign=middle;resizable=0;points=[];" parent="e77cdDmP9BwfHs4r40R--66" vertex="1" connectable="0">
          <mxGeometry x="0.4643" y="2" relative="1" as="geometry">
            <mxPoint x="4" y="-8" as="offset" />
          </mxGeometry>
        </mxCell>
        <mxCell id="e77cdDmP9BwfHs4r40R--68" style="edgeStyle=orthogonalEdgeStyle;rounded=0;orthogonalLoop=1;jettySize=auto;html=1;exitX=0.75;exitY=1;exitDx=0;exitDy=0;entryX=0;entryY=0.5;entryDx=0;entryDy=0;" parent="WIyWlLk6GJQsqaUBKTNV-1" source="e77cdDmP9BwfHs4r40R--72" target="e77cdDmP9BwfHs4r40R--78" edge="1">
          <mxGeometry relative="1" as="geometry" />
        </mxCell>
        <mxCell id="e77cdDmP9BwfHs4r40R--69" value="Создает" style="edgeLabel;html=1;align=center;verticalAlign=middle;resizable=0;points=[];" parent="e77cdDmP9BwfHs4r40R--68" vertex="1" connectable="0">
          <mxGeometry x="0.504" y="-2" relative="1" as="geometry">
            <mxPoint x="-7" y="-12" as="offset" />
          </mxGeometry>
        </mxCell>
        <mxCell id="e77cdDmP9BwfHs4r40R--70" style="edgeStyle=orthogonalEdgeStyle;rounded=0;orthogonalLoop=1;jettySize=auto;html=1;exitX=0.25;exitY=1;exitDx=0;exitDy=0;entryX=0;entryY=0.5;entryDx=0;entryDy=0;" parent="WIyWlLk6GJQsqaUBKTNV-1" source="e77cdDmP9BwfHs4r40R--72" target="e77cdDmP9BwfHs4r40R--79" edge="1">
          <mxGeometry relative="1" as="geometry" />
        </mxCell>
        <mxCell id="e77cdDmP9BwfHs4r40R--71" value="Контролирует" style="edgeLabel;html=1;align=center;verticalAlign=middle;resizable=0;points=[];" parent="e77cdDmP9BwfHs4r40R--70" vertex="1" connectable="0">
          <mxGeometry x="0.5125" y="1" relative="1" as="geometry">
            <mxPoint x="23" y="-9" as="offset" />
          </mxGeometry>
        </mxCell>
        <mxCell id="e77cdDmP9BwfHs4r40R--72" value="Менеджер" style="whiteSpace=wrap;html=1;align=center;" parent="WIyWlLk6GJQsqaUBKTNV-1" vertex="1">
          <mxGeometry x="800" y="170" width="100" height="40" as="geometry" />
        </mxCell>
        <mxCell id="e77cdDmP9BwfHs4r40R--73" style="edgeStyle=orthogonalEdgeStyle;rounded=0;orthogonalLoop=1;jettySize=auto;html=1;exitX=0.5;exitY=1;exitDx=0;exitDy=0;entryX=0.5;entryY=0;entryDx=0;entryDy=0;" parent="WIyWlLk6GJQsqaUBKTNV-1" source="e77cdDmP9BwfHs4r40R--75" target="e77cdDmP9BwfHs4r40R--61" edge="1">
          <mxGeometry relative="1" as="geometry" />
        </mxCell>
        <mxCell id="e77cdDmP9BwfHs4r40R--74" value="Переходит в" style="edgeLabel;html=1;align=center;verticalAlign=middle;resizable=0;points=[];" parent="e77cdDmP9BwfHs4r40R--73" vertex="1" connectable="0">
          <mxGeometry x="-0.3" y="4" relative="1" as="geometry">
            <mxPoint as="offset" />
          </mxGeometry>
        </mxCell>
        <mxCell id="e77cdDmP9BwfHs4r40R--75" value="Звонок" style="whiteSpace=wrap;html=1;align=center;" parent="WIyWlLk6GJQsqaUBKTNV-1" vertex="1">
          <mxGeometry x="1030" y="170" width="100" height="40" as="geometry" />
        </mxCell>
        <mxCell id="e77cdDmP9BwfHs4r40R--76" style="edgeStyle=orthogonalEdgeStyle;rounded=0;orthogonalLoop=1;jettySize=auto;html=1;exitX=0.5;exitY=1;exitDx=0;exitDy=0;entryX=0.5;entryY=0;entryDx=0;entryDy=0;" parent="WIyWlLk6GJQsqaUBKTNV-1" source="e77cdDmP9BwfHs4r40R--78" target="e77cdDmP9BwfHs4r40R--58" edge="1">
          <mxGeometry relative="1" as="geometry" />
        </mxCell>
        <mxCell id="e77cdDmP9BwfHs4r40R--77" value="Содержит" style="edgeLabel;html=1;align=center;verticalAlign=middle;resizable=0;points=[];" parent="e77cdDmP9BwfHs4r40R--76" vertex="1" connectable="0">
          <mxGeometry x="-0.35" y="2" relative="1" as="geometry">
            <mxPoint as="offset" />
          </mxGeometry>
        </mxCell>
        <mxCell id="e77cdDmP9BwfHs4r40R--78" value="Договор" style="whiteSpace=wrap;html=1;align=center;" parent="WIyWlLk6GJQsqaUBKTNV-1" vertex="1">
          <mxGeometry x="1030" y="330" width="100" height="40" as="geometry" />
        </mxCell>
        <mxCell id="e77cdDmP9BwfHs4r40R--79" value="Обслуживание" style="whiteSpace=wrap;html=1;align=center;" parent="WIyWlLk6GJQsqaUBKTNV-1" vertex="1">
          <mxGeometry x="1030" y="490" width="100" height="40" as="geometry" />
        </mxCell>
        <mxCell id="e77cdDmP9BwfHs4r40R--80" value="Менеджер" style="swimlane;fontStyle=1;align=center;verticalAlign=top;childLayout=stackLayout;horizontal=1;startSize=26;horizontalStack=0;resizeParent=1;resizeParentMax=0;resizeLast=0;collapsible=1;marginBottom=0;whiteSpace=wrap;html=1;" parent="WIyWlLk6GJQsqaUBKTNV-1" vertex="1">
          <mxGeometry x="300" y="320" width="160" height="130" as="geometry" />
        </mxCell>
        <mxCell id="e77cdDmP9BwfHs4r40R--81" value="ID пользователя" style="text;strokeColor=none;fillColor=none;align=left;verticalAlign=top;spacingLeft=4;spacingRight=4;overflow=hidden;rotatable=0;points=[[0,0.5],[1,0.5]];portConstraint=eastwest;whiteSpace=wrap;html=1;" parent="e77cdDmP9BwfHs4r40R--80" vertex="1">
          <mxGeometry y="26" width="160" height="26" as="geometry" />
        </mxCell>
        <mxCell id="e77cdDmP9BwfHs4r40R--82" value="" style="line;strokeWidth=1;fillColor=none;align=left;verticalAlign=middle;spacingTop=-1;spacingLeft=3;spacingRight=3;rotatable=0;labelPosition=right;points=[];portConstraint=eastwest;strokeColor=inherit;" parent="e77cdDmP9BwfHs4r40R--80" vertex="1">
          <mxGeometry y="52" width="160" height="8" as="geometry" />
        </mxCell>
        <mxCell id="e77cdDmP9BwfHs4r40R--83" value="ФИО сотрудника&lt;div&gt;Логин&lt;/div&gt;&lt;div&gt;Пароль&lt;/div&gt;&lt;div&gt;Права доступа&lt;/div&gt;" style="text;strokeColor=none;fillColor=none;align=left;verticalAlign=top;spacingLeft=4;spacingRight=4;overflow=hidden;rotatable=0;points=[[0,0.5],[1,0.5]];portConstraint=eastwest;whiteSpace=wrap;html=1;" parent="e77cdDmP9BwfHs4r40R--80" vertex="1">
          <mxGeometry y="60" width="160" height="70" as="geometry" />
        </mxCell>
        <mxCell id="e77cdDmP9BwfHs4r40R--84" value="Мастер" style="swimlane;fontStyle=1;align=center;verticalAlign=top;childLayout=stackLayout;horizontal=1;startSize=26;horizontalStack=0;resizeParent=1;resizeParentMax=0;resizeLast=0;collapsible=1;marginBottom=0;whiteSpace=wrap;html=1;" parent="WIyWlLk6GJQsqaUBKTNV-1" vertex="1">
          <mxGeometry x="300" y="500" width="160" height="130" as="geometry" />
        </mxCell>
        <mxCell id="e77cdDmP9BwfHs4r40R--85" value="ID пользователя" style="text;strokeColor=none;fillColor=none;align=left;verticalAlign=top;spacingLeft=4;spacingRight=4;overflow=hidden;rotatable=0;points=[[0,0.5],[1,0.5]];portConstraint=eastwest;whiteSpace=wrap;html=1;" parent="e77cdDmP9BwfHs4r40R--84" vertex="1">
          <mxGeometry y="26" width="160" height="26" as="geometry" />
        </mxCell>
        <mxCell id="e77cdDmP9BwfHs4r40R--86" value="" style="line;strokeWidth=1;fillColor=none;align=left;verticalAlign=middle;spacingTop=-1;spacingLeft=3;spacingRight=3;rotatable=0;labelPosition=right;points=[];portConstraint=eastwest;strokeColor=inherit;" parent="e77cdDmP9BwfHs4r40R--84" vertex="1">
          <mxGeometry y="52" width="160" height="8" as="geometry" />
        </mxCell>
        <mxCell id="e77cdDmP9BwfHs4r40R--87" value="ФИО сотрудника&lt;div&gt;Логин&lt;/div&gt;&lt;div&gt;Пароль&lt;/div&gt;&lt;div&gt;Права доступа&lt;/div&gt;" style="text;strokeColor=none;fillColor=none;align=left;verticalAlign=top;spacingLeft=4;spacingRight=4;overflow=hidden;rotatable=0;points=[[0,0.5],[1,0.5]];portConstraint=eastwest;whiteSpace=wrap;html=1;" parent="e77cdDmP9BwfHs4r40R--84" vertex="1">
          <mxGeometry y="60" width="160" height="70" as="geometry" />
        </mxCell>
        <mxCell id="e77cdDmP9BwfHs4r40R--88" value="Клиент" style="swimlane;fontStyle=1;align=center;verticalAlign=top;childLayout=stackLayout;horizontal=1;startSize=26;horizontalStack=0;resizeParent=1;resizeParentMax=0;resizeLast=0;collapsible=1;marginBottom=0;whiteSpace=wrap;html=1;" parent="WIyWlLk6GJQsqaUBKTNV-1" vertex="1">
          <mxGeometry x="510" y="320" width="160" height="130" as="geometry" />
        </mxCell>
        <mxCell id="e77cdDmP9BwfHs4r40R--89" value="ID клиента" style="text;strokeColor=none;fillColor=none;align=left;verticalAlign=top;spacingLeft=4;spacingRight=4;overflow=hidden;rotatable=0;points=[[0,0.5],[1,0.5]];portConstraint=eastwest;whiteSpace=wrap;html=1;" parent="e77cdDmP9BwfHs4r40R--88" vertex="1">
          <mxGeometry y="26" width="160" height="26" as="geometry" />
        </mxCell>
        <mxCell id="e77cdDmP9BwfHs4r40R--90" value="" style="line;strokeWidth=1;fillColor=none;align=left;verticalAlign=middle;spacingTop=-1;spacingLeft=3;spacingRight=3;rotatable=0;labelPosition=right;points=[];portConstraint=eastwest;strokeColor=inherit;" parent="e77cdDmP9BwfHs4r40R--88" vertex="1">
          <mxGeometry y="52" width="160" height="8" as="geometry" />
        </mxCell>
        <mxCell id="e77cdDmP9BwfHs4r40R--91" value="ФИО клиента&lt;div&gt;Адрес&lt;/div&gt;&lt;div&gt;Комментарии&lt;/div&gt;" style="text;strokeColor=none;fillColor=none;align=left;verticalAlign=top;spacingLeft=4;spacingRight=4;overflow=hidden;rotatable=0;points=[[0,0.5],[1,0.5]];portConstraint=eastwest;whiteSpace=wrap;html=1;" parent="e77cdDmP9BwfHs4r40R--88" vertex="1">
          <mxGeometry y="60" width="160" height="70" as="geometry" />
        </mxCell>
        <mxCell id="e77cdDmP9BwfHs4r40R--92" value="Контактное лицо" style="swimlane;fontStyle=1;align=center;verticalAlign=top;childLayout=stackLayout;horizontal=1;startSize=26;horizontalStack=0;resizeParent=1;resizeParentMax=0;resizeLast=0;collapsible=1;marginBottom=0;whiteSpace=wrap;html=1;" parent="WIyWlLk6GJQsqaUBKTNV-1" vertex="1">
          <mxGeometry x="510" y="500" width="160" height="130" as="geometry" />
        </mxCell>
        <mxCell id="e77cdDmP9BwfHs4r40R--93" value="ID контактного лица" style="text;strokeColor=none;fillColor=none;align=left;verticalAlign=top;spacingLeft=4;spacingRight=4;overflow=hidden;rotatable=0;points=[[0,0.5],[1,0.5]];portConstraint=eastwest;whiteSpace=wrap;html=1;" parent="e77cdDmP9BwfHs4r40R--92" vertex="1">
          <mxGeometry y="26" width="160" height="26" as="geometry" />
        </mxCell>
        <mxCell id="e77cdDmP9BwfHs4r40R--94" value="" style="line;strokeWidth=1;fillColor=none;align=left;verticalAlign=middle;spacingTop=-1;spacingLeft=3;spacingRight=3;rotatable=0;labelPosition=right;points=[];portConstraint=eastwest;strokeColor=inherit;" parent="e77cdDmP9BwfHs4r40R--92" vertex="1">
          <mxGeometry y="52" width="160" height="8" as="geometry" />
        </mxCell>
        <mxCell id="e77cdDmP9BwfHs4r40R--95" value="&lt;div&gt;ID клиента&lt;/div&gt;&lt;div&gt;Номер телефона&lt;/div&gt;" style="text;strokeColor=none;fillColor=none;align=left;verticalAlign=top;spacingLeft=4;spacingRight=4;overflow=hidden;rotatable=0;points=[[0,0.5],[1,0.5]];portConstraint=eastwest;whiteSpace=wrap;html=1;" parent="e77cdDmP9BwfHs4r40R--92" vertex="1">
          <mxGeometry y="60" width="160" height="70" as="geometry" />
        </mxCell>
        <mxCell id="e77cdDmP9BwfHs4r40R--100" value="Заявка" style="swimlane;fontStyle=1;align=center;verticalAlign=top;childLayout=stackLayout;horizontal=1;startSize=26;horizontalStack=0;resizeParent=1;resizeParentMax=0;resizeLast=0;collapsible=1;marginBottom=0;whiteSpace=wrap;html=1;" parent="WIyWlLk6GJQsqaUBKTNV-1" vertex="1">
          <mxGeometry x="300" y="730" width="160" height="130" as="geometry" />
        </mxCell>
        <mxCell id="e77cdDmP9BwfHs4r40R--101" value="ID заявки" style="text;strokeColor=none;fillColor=none;align=left;verticalAlign=top;spacingLeft=4;spacingRight=4;overflow=hidden;rotatable=0;points=[[0,0.5],[1,0.5]];portConstraint=eastwest;whiteSpace=wrap;html=1;" parent="e77cdDmP9BwfHs4r40R--100" vertex="1">
          <mxGeometry y="26" width="160" height="26" as="geometry" />
        </mxCell>
        <mxCell id="e77cdDmP9BwfHs4r40R--102" value="" style="line;strokeWidth=1;fillColor=none;align=left;verticalAlign=middle;spacingTop=-1;spacingLeft=3;spacingRight=3;rotatable=0;labelPosition=right;points=[];portConstraint=eastwest;strokeColor=inherit;" parent="e77cdDmP9BwfHs4r40R--100" vertex="1">
          <mxGeometry y="52" width="160" height="8" as="geometry" />
        </mxCell>
        <mxCell id="e77cdDmP9BwfHs4r40R--103" value="&lt;div&gt;ID клиента&lt;/div&gt;&lt;div&gt;Содержание работ&lt;/div&gt;&lt;div&gt;Сроки выполнения&lt;/div&gt;&lt;div&gt;Комментарии&lt;/div&gt;" style="text;strokeColor=none;fillColor=none;align=left;verticalAlign=top;spacingLeft=4;spacingRight=4;overflow=hidden;rotatable=0;points=[[0,0.5],[1,0.5]];portConstraint=eastwest;whiteSpace=wrap;html=1;" parent="e77cdDmP9BwfHs4r40R--100" vertex="1">
          <mxGeometry y="60" width="160" height="70" as="geometry" />
        </mxCell>
        <mxCell id="e77cdDmP9BwfHs4r40R--104" value="Выполненные работы" style="swimlane;fontStyle=1;align=center;verticalAlign=top;childLayout=stackLayout;horizontal=1;startSize=26;horizontalStack=0;resizeParent=1;resizeParentMax=0;resizeLast=0;collapsible=1;marginBottom=0;whiteSpace=wrap;html=1;" parent="WIyWlLk6GJQsqaUBKTNV-1" vertex="1">
          <mxGeometry x="510" y="730" width="160" height="130" as="geometry" />
        </mxCell>
        <mxCell id="e77cdDmP9BwfHs4r40R--105" value="ID работы" style="text;strokeColor=none;fillColor=none;align=left;verticalAlign=top;spacingLeft=4;spacingRight=4;overflow=hidden;rotatable=0;points=[[0,0.5],[1,0.5]];portConstraint=eastwest;whiteSpace=wrap;html=1;" parent="e77cdDmP9BwfHs4r40R--104" vertex="1">
          <mxGeometry y="26" width="160" height="26" as="geometry" />
        </mxCell>
        <mxCell id="e77cdDmP9BwfHs4r40R--106" value="" style="line;strokeWidth=1;fillColor=none;align=left;verticalAlign=middle;spacingTop=-1;spacingLeft=3;spacingRight=3;rotatable=0;labelPosition=right;points=[];portConstraint=eastwest;strokeColor=inherit;" parent="e77cdDmP9BwfHs4r40R--104" vertex="1">
          <mxGeometry y="52" width="160" height="8" as="geometry" />
        </mxCell>
        <mxCell id="e77cdDmP9BwfHs4r40R--107" value="&lt;div&gt;ID заявки&lt;/div&gt;&lt;div&gt;Дата выполнения&lt;/div&gt;&lt;div&gt;Содержание работ&lt;/div&gt;&lt;div&gt;Плановая деятельность&lt;/div&gt;" style="text;strokeColor=none;fillColor=none;align=left;verticalAlign=top;spacingLeft=4;spacingRight=4;overflow=hidden;rotatable=0;points=[[0,0.5],[1,0.5]];portConstraint=eastwest;whiteSpace=wrap;html=1;" parent="e77cdDmP9BwfHs4r40R--104" vertex="1">
          <mxGeometry y="60" width="160" height="70" as="geometry" />
        </mxCell>
        <mxCell id="e77cdDmP9BwfHs4r40R--108" value="Договор" style="swimlane;fontStyle=1;align=center;verticalAlign=top;childLayout=stackLayout;horizontal=1;startSize=26;horizontalStack=0;resizeParent=1;resizeParentMax=0;resizeLast=0;collapsible=1;marginBottom=0;whiteSpace=wrap;html=1;" parent="WIyWlLk6GJQsqaUBKTNV-1" vertex="1">
          <mxGeometry x="300" y="890" width="160" height="150" as="geometry" />
        </mxCell>
        <mxCell id="e77cdDmP9BwfHs4r40R--109" value="ID договора" style="text;strokeColor=none;fillColor=none;align=left;verticalAlign=top;spacingLeft=4;spacingRight=4;overflow=hidden;rotatable=0;points=[[0,0.5],[1,0.5]];portConstraint=eastwest;whiteSpace=wrap;html=1;" parent="e77cdDmP9BwfHs4r40R--108" vertex="1">
          <mxGeometry y="26" width="160" height="26" as="geometry" />
        </mxCell>
        <mxCell id="e77cdDmP9BwfHs4r40R--110" value="" style="line;strokeWidth=1;fillColor=none;align=left;verticalAlign=middle;spacingTop=-1;spacingLeft=3;spacingRight=3;rotatable=0;labelPosition=right;points=[];portConstraint=eastwest;strokeColor=inherit;" parent="e77cdDmP9BwfHs4r40R--108" vertex="1">
          <mxGeometry y="52" width="160" height="8" as="geometry" />
        </mxCell>
        <mxCell id="e77cdDmP9BwfHs4r40R--111" value="&lt;div&gt;ID клиента&lt;/div&gt;&lt;div&gt;Дата договора&lt;/div&gt;&lt;div&gt;Свойства договора&lt;/div&gt;&lt;div&gt;ID поступления&lt;/div&gt;&lt;div&gt;ID отгрузки&lt;/div&gt;" style="text;strokeColor=none;fillColor=none;align=left;verticalAlign=top;spacingLeft=4;spacingRight=4;overflow=hidden;rotatable=0;points=[[0,0.5],[1,0.5]];portConstraint=eastwest;whiteSpace=wrap;html=1;" parent="e77cdDmP9BwfHs4r40R--108" vertex="1">
          <mxGeometry y="60" width="160" height="90" as="geometry" />
        </mxCell>
        <mxCell id="e77cdDmP9BwfHs4r40R--112" value="Оборудование" style="swimlane;fontStyle=1;align=center;verticalAlign=top;childLayout=stackLayout;horizontal=1;startSize=26;horizontalStack=0;resizeParent=1;resizeParentMax=0;resizeLast=0;collapsible=1;marginBottom=0;whiteSpace=wrap;html=1;" parent="WIyWlLk6GJQsqaUBKTNV-1" vertex="1">
          <mxGeometry x="510" y="890" width="160" height="130" as="geometry" />
        </mxCell>
        <mxCell id="e77cdDmP9BwfHs4r40R--113" value="ID товара" style="text;strokeColor=none;fillColor=none;align=left;verticalAlign=top;spacingLeft=4;spacingRight=4;overflow=hidden;rotatable=0;points=[[0,0.5],[1,0.5]];portConstraint=eastwest;whiteSpace=wrap;html=1;" parent="e77cdDmP9BwfHs4r40R--112" vertex="1">
          <mxGeometry y="26" width="160" height="26" as="geometry" />
        </mxCell>
        <mxCell id="e77cdDmP9BwfHs4r40R--114" value="" style="line;strokeWidth=1;fillColor=none;align=left;verticalAlign=middle;spacingTop=-1;spacingLeft=3;spacingRight=3;rotatable=0;labelPosition=right;points=[];portConstraint=eastwest;strokeColor=inherit;" parent="e77cdDmP9BwfHs4r40R--112" vertex="1">
          <mxGeometry y="52" width="160" height="8" as="geometry" />
        </mxCell>
        <mxCell id="e77cdDmP9BwfHs4r40R--115" value="&lt;div&gt;Номенклатура&lt;/div&gt;&lt;div&gt;Наименование&lt;/div&gt;&lt;div&gt;Стоимость&lt;/div&gt;&lt;div&gt;&lt;br&gt;&lt;/div&gt;" style="text;strokeColor=none;fillColor=none;align=left;verticalAlign=top;spacingLeft=4;spacingRight=4;overflow=hidden;rotatable=0;points=[[0,0.5],[1,0.5]];portConstraint=eastwest;whiteSpace=wrap;html=1;" parent="e77cdDmP9BwfHs4r40R--112" vertex="1">
          <mxGeometry y="60" width="160" height="70" as="geometry" />
        </mxCell>
        <mxCell id="e77cdDmP9BwfHs4r40R--116" value="Поступление" style="swimlane;fontStyle=1;align=center;verticalAlign=top;childLayout=stackLayout;horizontal=1;startSize=26;horizontalStack=0;resizeParent=1;resizeParentMax=0;resizeLast=0;collapsible=1;marginBottom=0;whiteSpace=wrap;html=1;" parent="WIyWlLk6GJQsqaUBKTNV-1" vertex="1">
          <mxGeometry x="300" y="1060" width="160" height="130" as="geometry" />
        </mxCell>
        <mxCell id="e77cdDmP9BwfHs4r40R--117" value="ID поступления" style="text;strokeColor=none;fillColor=none;align=left;verticalAlign=top;spacingLeft=4;spacingRight=4;overflow=hidden;rotatable=0;points=[[0,0.5],[1,0.5]];portConstraint=eastwest;whiteSpace=wrap;html=1;" parent="e77cdDmP9BwfHs4r40R--116" vertex="1">
          <mxGeometry y="26" width="160" height="26" as="geometry" />
        </mxCell>
        <mxCell id="e77cdDmP9BwfHs4r40R--118" value="" style="line;strokeWidth=1;fillColor=none;align=left;verticalAlign=middle;spacingTop=-1;spacingLeft=3;spacingRight=3;rotatable=0;labelPosition=right;points=[];portConstraint=eastwest;strokeColor=inherit;" parent="e77cdDmP9BwfHs4r40R--116" vertex="1">
          <mxGeometry y="52" width="160" height="8" as="geometry" />
        </mxCell>
        <mxCell id="e77cdDmP9BwfHs4r40R--119" value="&lt;div&gt;ID товаров&lt;/div&gt;&lt;div&gt;Дата&lt;/div&gt;&lt;div&gt;Стоимость товаров&lt;/div&gt;&lt;div&gt;&lt;br&gt;&lt;/div&gt;" style="text;strokeColor=none;fillColor=none;align=left;verticalAlign=top;spacingLeft=4;spacingRight=4;overflow=hidden;rotatable=0;points=[[0,0.5],[1,0.5]];portConstraint=eastwest;whiteSpace=wrap;html=1;" parent="e77cdDmP9BwfHs4r40R--116" vertex="1">
          <mxGeometry y="60" width="160" height="70" as="geometry" />
        </mxCell>
        <mxCell id="e77cdDmP9BwfHs4r40R--120" value="Отгрузка" style="swimlane;fontStyle=1;align=center;verticalAlign=top;childLayout=stackLayout;horizontal=1;startSize=26;horizontalStack=0;resizeParent=1;resizeParentMax=0;resizeLast=0;collapsible=1;marginBottom=0;whiteSpace=wrap;html=1;" parent="WIyWlLk6GJQsqaUBKTNV-1" vertex="1">
          <mxGeometry x="510" y="1060" width="160" height="130" as="geometry" />
        </mxCell>
        <mxCell id="e77cdDmP9BwfHs4r40R--121" value="ID отгрузки" style="text;strokeColor=none;fillColor=none;align=left;verticalAlign=top;spacingLeft=4;spacingRight=4;overflow=hidden;rotatable=0;points=[[0,0.5],[1,0.5]];portConstraint=eastwest;whiteSpace=wrap;html=1;" parent="e77cdDmP9BwfHs4r40R--120" vertex="1">
          <mxGeometry y="26" width="160" height="26" as="geometry" />
        </mxCell>
        <mxCell id="e77cdDmP9BwfHs4r40R--122" value="" style="line;strokeWidth=1;fillColor=none;align=left;verticalAlign=middle;spacingTop=-1;spacingLeft=3;spacingRight=3;rotatable=0;labelPosition=right;points=[];portConstraint=eastwest;strokeColor=inherit;" parent="e77cdDmP9BwfHs4r40R--120" vertex="1">
          <mxGeometry y="52" width="160" height="8" as="geometry" />
        </mxCell>
        <mxCell id="e77cdDmP9BwfHs4r40R--123" value="&lt;div&gt;ID товаров&lt;/div&gt;&lt;div&gt;ID клиента&lt;/div&gt;&lt;div&gt;Дата&lt;/div&gt;&lt;div&gt;Стоимость товаров&lt;/div&gt;&lt;div&gt;&lt;br&gt;&lt;/div&gt;" style="text;strokeColor=none;fillColor=none;align=left;verticalAlign=top;spacingLeft=4;spacingRight=4;overflow=hidden;rotatable=0;points=[[0,0.5],[1,0.5]];portConstraint=eastwest;whiteSpace=wrap;html=1;" parent="e77cdDmP9BwfHs4r40R--120" vertex="1">
          <mxGeometry y="60" width="160" height="70" as="geometry" />
        </mxCell>
        <mxCell id="--YtzrklkNBxloeXn2lH-77" style="edgeStyle=orthogonalEdgeStyle;rounded=0;orthogonalLoop=1;jettySize=auto;html=1;exitX=0.5;exitY=1;exitDx=0;exitDy=0;entryX=0.5;entryY=0;entryDx=0;entryDy=0;endArrow=ERzeroToMany;endFill=0;startArrow=ERone;startFill=0;" parent="WIyWlLk6GJQsqaUBKTNV-1" source="--YtzrklkNBxloeXn2lH-0" target="--YtzrklkNBxloeXn2lH-12" edge="1">
          <mxGeometry relative="1" as="geometry" />
        </mxCell>
        <mxCell id="--YtzrklkNBxloeXn2lH-0" value="Клиент" style="swimlane;fontStyle=1;align=center;verticalAlign=top;childLayout=stackLayout;horizontal=1;startSize=26;horizontalStack=0;resizeParent=1;resizeParentMax=0;resizeLast=0;collapsible=1;marginBottom=0;whiteSpace=wrap;html=1;" parent="WIyWlLk6GJQsqaUBKTNV-1" vertex="1">
          <mxGeometry x="-919.5" width="260" height="138" as="geometry" />
        </mxCell>
        <mxCell id="--YtzrklkNBxloeXn2lH-30" value="+ intPhoneNumber: Integer" style="text;strokeColor=none;fillColor=none;align=left;verticalAlign=top;spacingLeft=4;spacingRight=4;overflow=hidden;rotatable=0;points=[[0,0.5],[1,0.5]];portConstraint=eastwest;whiteSpace=wrap;html=1;" parent="--YtzrklkNBxloeXn2lH-0" vertex="1">
          <mxGeometry y="26" width="260" height="26" as="geometry" />
        </mxCell>
        <mxCell id="--YtzrklkNBxloeXn2lH-1" value="+ strClientFirstName: String" style="text;strokeColor=none;fillColor=none;align=left;verticalAlign=top;spacingLeft=4;spacingRight=4;overflow=hidden;rotatable=0;points=[[0,0.5],[1,0.5]];portConstraint=eastwest;whiteSpace=wrap;html=1;" parent="--YtzrklkNBxloeXn2lH-0" vertex="1">
          <mxGeometry y="52" width="260" height="26" as="geometry" />
        </mxCell>
        <mxCell id="--YtzrklkNBxloeXn2lH-4" value="+ strClientLastName: String" style="text;strokeColor=none;fillColor=none;align=left;verticalAlign=top;spacingLeft=4;spacingRight=4;overflow=hidden;rotatable=0;points=[[0,0.5],[1,0.5]];portConstraint=eastwest;whiteSpace=wrap;html=1;" parent="--YtzrklkNBxloeXn2lH-0" vertex="1">
          <mxGeometry y="78" width="260" height="26" as="geometry" />
        </mxCell>
        <mxCell id="--YtzrklkNBxloeXn2lH-5" value="+ strClientPatronymic: String[0..1]" style="text;strokeColor=none;fillColor=none;align=left;verticalAlign=top;spacingLeft=4;spacingRight=4;overflow=hidden;rotatable=0;points=[[0,0.5],[1,0.5]];portConstraint=eastwest;whiteSpace=wrap;html=1;" parent="--YtzrklkNBxloeXn2lH-0" vertex="1">
          <mxGeometry y="104" width="260" height="26" as="geometry" />
        </mxCell>
        <mxCell id="--YtzrklkNBxloeXn2lH-2" value="" style="line;strokeWidth=1;fillColor=none;align=left;verticalAlign=middle;spacingTop=-1;spacingLeft=3;spacingRight=3;rotatable=0;labelPosition=right;points=[];portConstraint=eastwest;strokeColor=inherit;" parent="--YtzrklkNBxloeXn2lH-0" vertex="1">
          <mxGeometry y="130" width="260" height="8" as="geometry" />
        </mxCell>
        <mxCell id="--YtzrklkNBxloeXn2lH-12" value="Строительный Объект" style="swimlane;fontStyle=1;align=center;verticalAlign=top;childLayout=stackLayout;horizontal=1;startSize=26;horizontalStack=0;resizeParent=1;resizeParentMax=0;resizeLast=0;collapsible=1;marginBottom=0;whiteSpace=wrap;html=1;" parent="WIyWlLk6GJQsqaUBKTNV-1" vertex="1">
          <mxGeometry x="-915" y="208" width="250" height="112" as="geometry" />
        </mxCell>
        <mxCell id="--YtzrklkNBxloeXn2lH-13" value="+ strAddress: String" style="text;strokeColor=none;fillColor=none;align=left;verticalAlign=top;spacingLeft=4;spacingRight=4;overflow=hidden;rotatable=0;points=[[0,0.5],[1,0.5]];portConstraint=eastwest;whiteSpace=wrap;html=1;" parent="--YtzrklkNBxloeXn2lH-12" vertex="1">
          <mxGeometry y="26" width="250" height="26" as="geometry" />
        </mxCell>
        <mxCell id="--YtzrklkNBxloeXn2lH-14" value="" style="line;strokeWidth=1;fillColor=none;align=left;verticalAlign=middle;spacingTop=-1;spacingLeft=3;spacingRight=3;rotatable=0;labelPosition=right;points=[];portConstraint=eastwest;strokeColor=inherit;" parent="--YtzrklkNBxloeXn2lH-12" vertex="1">
          <mxGeometry y="52" width="250" height="8" as="geometry" />
        </mxCell>
        <mxCell id="--YtzrklkNBxloeXn2lH-15" value="+ RegisterNewOrder(out orderID): Integer" style="text;strokeColor=none;fillColor=none;align=left;verticalAlign=top;spacingLeft=4;spacingRight=4;overflow=hidden;rotatable=0;points=[[0,0.5],[1,0.5]];portConstraint=eastwest;whiteSpace=wrap;html=1;" parent="--YtzrklkNBxloeXn2lH-12" vertex="1">
          <mxGeometry y="60" width="250" height="26" as="geometry" />
        </mxCell>
        <mxCell id="--YtzrklkNBxloeXn2lH-31" value="+ RegisterNewClient(out clientID): Integer" style="text;strokeColor=none;fillColor=none;align=left;verticalAlign=top;spacingLeft=4;spacingRight=4;overflow=hidden;rotatable=0;points=[[0,0.5],[1,0.5]];portConstraint=eastwest;whiteSpace=wrap;html=1;" parent="--YtzrklkNBxloeXn2lH-12" vertex="1">
          <mxGeometry y="86" width="250" height="26" as="geometry" />
        </mxCell>
        <mxCell id="--YtzrklkNBxloeXn2lH-78" style="edgeStyle=orthogonalEdgeStyle;rounded=0;orthogonalLoop=1;jettySize=auto;html=1;exitX=0.5;exitY=0;exitDx=0;exitDy=0;entryX=0.5;entryY=1;entryDx=0;entryDy=0;endArrow=ERone;endFill=0;startArrow=ERone;startFill=0;" parent="WIyWlLk6GJQsqaUBKTNV-1" source="--YtzrklkNBxloeXn2lH-16" target="--YtzrklkNBxloeXn2lH-12" edge="1">
          <mxGeometry relative="1" as="geometry" />
        </mxCell>
        <mxCell id="9IQNyrEW4V98np8E3aTX-4" style="edgeStyle=orthogonalEdgeStyle;rounded=0;orthogonalLoop=1;jettySize=auto;html=1;endArrow=ERone;endFill=0;startArrow=ERone;startFill=0;" edge="1" parent="WIyWlLk6GJQsqaUBKTNV-1" source="--YtzrklkNBxloeXn2lH-16" target="--YtzrklkNBxloeXn2lH-49">
          <mxGeometry relative="1" as="geometry" />
        </mxCell>
        <mxCell id="--YtzrklkNBxloeXn2lH-16" value="Заявка" style="swimlane;fontStyle=1;align=center;verticalAlign=top;childLayout=stackLayout;horizontal=1;startSize=26;horizontalStack=0;resizeParent=1;resizeParentMax=0;resizeLast=0;collapsible=1;marginBottom=0;whiteSpace=wrap;html=1;" parent="WIyWlLk6GJQsqaUBKTNV-1" vertex="1">
          <mxGeometry x="-990" y="370" width="400" height="190" as="geometry" />
        </mxCell>
        <mxCell id="--YtzrklkNBxloeXn2lH-20" value="+ strDescription: String" style="text;strokeColor=none;fillColor=none;align=left;verticalAlign=top;spacingLeft=4;spacingRight=4;overflow=hidden;rotatable=0;points=[[0,0.5],[1,0.5]];portConstraint=eastwest;whiteSpace=wrap;html=1;" parent="--YtzrklkNBxloeXn2lH-16" vertex="1">
          <mxGeometry y="26" width="400" height="26" as="geometry" />
        </mxCell>
        <mxCell id="--YtzrklkNBxloeXn2lH-22" value="+ statOrderStatus: OrderStatus" style="text;strokeColor=none;fillColor=none;align=left;verticalAlign=top;spacingLeft=4;spacingRight=4;overflow=hidden;rotatable=0;points=[[0,0.5],[1,0.5]];portConstraint=eastwest;whiteSpace=wrap;html=1;" parent="--YtzrklkNBxloeXn2lH-16" vertex="1">
          <mxGeometry y="52" width="400" height="26" as="geometry" />
        </mxCell>
        <mxCell id="--YtzrklkNBxloeXn2lH-21" value="+ datDeadline: Date" style="text;strokeColor=none;fillColor=none;align=left;verticalAlign=top;spacingLeft=4;spacingRight=4;overflow=hidden;rotatable=0;points=[[0,0.5],[1,0.5]];portConstraint=eastwest;whiteSpace=wrap;html=1;" parent="--YtzrklkNBxloeXn2lH-16" vertex="1">
          <mxGeometry y="78" width="400" height="26" as="geometry" />
        </mxCell>
        <mxCell id="--YtzrklkNBxloeXn2lH-18" value="" style="line;strokeWidth=1;fillColor=none;align=left;verticalAlign=middle;spacingTop=-1;spacingLeft=3;spacingRight=3;rotatable=0;labelPosition=right;points=[];portConstraint=eastwest;strokeColor=inherit;" parent="--YtzrklkNBxloeXn2lH-16" vertex="1">
          <mxGeometry y="104" width="400" height="8" as="geometry" />
        </mxCell>
        <mxCell id="--YtzrklkNBxloeXn2lH-19" value="- UpdateStatus(in curDate: Date)" style="text;strokeColor=none;fillColor=none;align=left;verticalAlign=top;spacingLeft=4;spacingRight=4;overflow=hidden;rotatable=0;points=[[0,0.5],[1,0.5]];portConstraint=eastwest;whiteSpace=wrap;html=1;" parent="--YtzrklkNBxloeXn2lH-16" vertex="1">
          <mxGeometry y="112" width="400" height="26" as="geometry" />
        </mxCell>
        <mxCell id="--YtzrklkNBxloeXn2lH-70" value="+ AddJob(in dat: Date, in desc: String): Integer" style="text;strokeColor=none;fillColor=none;align=left;verticalAlign=top;spacingLeft=4;spacingRight=4;overflow=hidden;rotatable=0;points=[[0,0.5],[1,0.5]];portConstraint=eastwest;whiteSpace=wrap;html=1;" parent="--YtzrklkNBxloeXn2lH-16" vertex="1">
          <mxGeometry y="138" width="400" height="26" as="geometry" />
        </mxCell>
        <mxCell id="--YtzrklkNBxloeXn2lH-71" value="+ ExportReport(): File" style="text;strokeColor=none;fillColor=none;align=left;verticalAlign=top;spacingLeft=4;spacingRight=4;overflow=hidden;rotatable=0;points=[[0,0.5],[1,0.5]];portConstraint=eastwest;whiteSpace=wrap;html=1;" parent="--YtzrklkNBxloeXn2lH-16" vertex="1">
          <mxGeometry y="164" width="400" height="26" as="geometry" />
        </mxCell>
        <mxCell id="9IQNyrEW4V98np8E3aTX-0" style="edgeStyle=orthogonalEdgeStyle;rounded=0;orthogonalLoop=1;jettySize=auto;html=1;endArrow=ERone;endFill=0;startArrow=ERoneToMany;startFill=0;" edge="1" parent="WIyWlLk6GJQsqaUBKTNV-1" source="--YtzrklkNBxloeXn2lH-24" target="--YtzrklkNBxloeXn2lH-16">
          <mxGeometry relative="1" as="geometry" />
        </mxCell>
        <mxCell id="9IQNyrEW4V98np8E3aTX-5" style="edgeStyle=orthogonalEdgeStyle;rounded=0;orthogonalLoop=1;jettySize=auto;html=1;endArrow=ERone;endFill=0;startArrow=ERone;startFill=0;" edge="1" parent="WIyWlLk6GJQsqaUBKTNV-1" source="--YtzrklkNBxloeXn2lH-24" target="--YtzrklkNBxloeXn2lH-33">
          <mxGeometry relative="1" as="geometry" />
        </mxCell>
        <mxCell id="--YtzrklkNBxloeXn2lH-24" value="Работа по заказу" style="swimlane;fontStyle=1;align=center;verticalAlign=top;childLayout=stackLayout;horizontal=1;startSize=26;horizontalStack=0;resizeParent=1;resizeParentMax=0;resizeLast=0;collapsible=1;marginBottom=0;whiteSpace=wrap;html=1;" parent="WIyWlLk6GJQsqaUBKTNV-1" vertex="1">
          <mxGeometry x="-500" y="396" width="370" height="138" as="geometry" />
        </mxCell>
        <mxCell id="--YtzrklkNBxloeXn2lH-28" value="+ datJobDate: Date" style="text;strokeColor=none;fillColor=none;align=left;verticalAlign=top;spacingLeft=4;spacingRight=4;overflow=hidden;rotatable=0;points=[[0,0.5],[1,0.5]];portConstraint=eastwest;whiteSpace=wrap;html=1;" parent="--YtzrklkNBxloeXn2lH-24" vertex="1">
          <mxGeometry y="26" width="370" height="26" as="geometry" />
        </mxCell>
        <mxCell id="--YtzrklkNBxloeXn2lH-29" value="+ strDescription: String" style="text;strokeColor=none;fillColor=none;align=left;verticalAlign=top;spacingLeft=4;spacingRight=4;overflow=hidden;rotatable=0;points=[[0,0.5],[1,0.5]];portConstraint=eastwest;whiteSpace=wrap;html=1;" parent="--YtzrklkNBxloeXn2lH-24" vertex="1">
          <mxGeometry y="52" width="370" height="26" as="geometry" />
        </mxCell>
        <mxCell id="--YtzrklkNBxloeXn2lH-32" value="+ statJobStatus: JobStatus" style="text;strokeColor=none;fillColor=none;align=left;verticalAlign=top;spacingLeft=4;spacingRight=4;overflow=hidden;rotatable=0;points=[[0,0.5],[1,0.5]];portConstraint=eastwest;whiteSpace=wrap;html=1;" parent="--YtzrklkNBxloeXn2lH-24" vertex="1">
          <mxGeometry y="78" width="370" height="26" as="geometry" />
        </mxCell>
        <mxCell id="--YtzrklkNBxloeXn2lH-26" value="" style="line;strokeWidth=1;fillColor=none;align=left;verticalAlign=middle;spacingTop=-1;spacingLeft=3;spacingRight=3;rotatable=0;labelPosition=right;points=[];portConstraint=eastwest;strokeColor=inherit;" parent="--YtzrklkNBxloeXn2lH-24" vertex="1">
          <mxGeometry y="104" width="370" height="8" as="geometry" />
        </mxCell>
        <mxCell id="--YtzrklkNBxloeXn2lH-27" value="- UpdateStatus(in curDate: Date)" style="text;strokeColor=none;fillColor=none;align=left;verticalAlign=top;spacingLeft=4;spacingRight=4;overflow=hidden;rotatable=0;points=[[0,0.5],[1,0.5]];portConstraint=eastwest;whiteSpace=wrap;html=1;" parent="--YtzrklkNBxloeXn2lH-24" vertex="1">
          <mxGeometry y="112" width="370" height="26" as="geometry" />
        </mxCell>
        <mxCell id="--YtzrklkNBxloeXn2lH-33" value="Договор по заказу" style="swimlane;fontStyle=1;align=center;verticalAlign=top;childLayout=stackLayout;horizontal=1;startSize=26;horizontalStack=0;resizeParent=1;resizeParentMax=0;resizeLast=0;collapsible=1;marginBottom=0;whiteSpace=wrap;html=1;" parent="WIyWlLk6GJQsqaUBKTNV-1" vertex="1">
          <mxGeometry x="-435" y="182" width="240" height="138" as="geometry" />
        </mxCell>
        <mxCell id="--YtzrklkNBxloeXn2lH-37" value="+ strContractNum: String" style="text;strokeColor=none;fillColor=none;align=left;verticalAlign=top;spacingLeft=4;spacingRight=4;overflow=hidden;rotatable=0;points=[[0,0.5],[1,0.5]];portConstraint=eastwest;whiteSpace=wrap;html=1;" parent="--YtzrklkNBxloeXn2lH-33" vertex="1">
          <mxGeometry y="26" width="240" height="26" as="geometry" />
        </mxCell>
        <mxCell id="--YtzrklkNBxloeXn2lH-38" value="+ datContractDate: Date" style="text;strokeColor=none;fillColor=none;align=left;verticalAlign=top;spacingLeft=4;spacingRight=4;overflow=hidden;rotatable=0;points=[[0,0.5],[1,0.5]];portConstraint=eastwest;whiteSpace=wrap;html=1;" parent="--YtzrklkNBxloeXn2lH-33" vertex="1">
          <mxGeometry y="52" width="240" height="26" as="geometry" />
        </mxCell>
        <mxCell id="--YtzrklkNBxloeXn2lH-39" value="+ lnkContractFile: File" style="text;strokeColor=none;fillColor=none;align=left;verticalAlign=top;spacingLeft=4;spacingRight=4;overflow=hidden;rotatable=0;points=[[0,0.5],[1,0.5]];portConstraint=eastwest;whiteSpace=wrap;html=1;" parent="--YtzrklkNBxloeXn2lH-33" vertex="1">
          <mxGeometry y="78" width="240" height="26" as="geometry" />
        </mxCell>
        <mxCell id="--YtzrklkNBxloeXn2lH-72" value="+ intOrderTotal: Integer" style="text;strokeColor=none;fillColor=none;align=left;verticalAlign=top;spacingLeft=4;spacingRight=4;overflow=hidden;rotatable=0;points=[[0,0.5],[1,0.5]];portConstraint=eastwest;whiteSpace=wrap;html=1;" parent="--YtzrklkNBxloeXn2lH-33" vertex="1">
          <mxGeometry y="104" width="240" height="26" as="geometry" />
        </mxCell>
        <mxCell id="--YtzrklkNBxloeXn2lH-35" value="" style="line;strokeWidth=1;fillColor=none;align=left;verticalAlign=middle;spacingTop=-1;spacingLeft=3;spacingRight=3;rotatable=0;labelPosition=right;points=[];portConstraint=eastwest;strokeColor=inherit;" parent="--YtzrklkNBxloeXn2lH-33" vertex="1">
          <mxGeometry y="130" width="240" height="8" as="geometry" />
        </mxCell>
        <mxCell id="--YtzrklkNBxloeXn2lH-41" value="Закупка оборудования" style="swimlane;fontStyle=1;align=center;verticalAlign=top;childLayout=stackLayout;horizontal=1;startSize=26;horizontalStack=0;resizeParent=1;resizeParentMax=0;resizeLast=0;collapsible=1;marginBottom=0;whiteSpace=wrap;html=1;" parent="WIyWlLk6GJQsqaUBKTNV-1" vertex="1">
          <mxGeometry x="-200" y="624" width="240" height="216" as="geometry" />
        </mxCell>
        <mxCell id="--YtzrklkNBxloeXn2lH-43" value="+ strContractNum: String" style="text;strokeColor=none;fillColor=none;align=left;verticalAlign=top;spacingLeft=4;spacingRight=4;overflow=hidden;rotatable=0;points=[[0,0.5],[1,0.5]];portConstraint=eastwest;whiteSpace=wrap;html=1;" parent="--YtzrklkNBxloeXn2lH-41" vertex="1">
          <mxGeometry y="26" width="240" height="26" as="geometry" />
        </mxCell>
        <mxCell id="--YtzrklkNBxloeXn2lH-44" value="+ datContractDate: Date" style="text;strokeColor=none;fillColor=none;align=left;verticalAlign=top;spacingLeft=4;spacingRight=4;overflow=hidden;rotatable=0;points=[[0,0.5],[1,0.5]];portConstraint=eastwest;whiteSpace=wrap;html=1;" parent="--YtzrklkNBxloeXn2lH-41" vertex="1">
          <mxGeometry y="52" width="240" height="26" as="geometry" />
        </mxCell>
        <mxCell id="--YtzrklkNBxloeXn2lH-45" value="+ lnkContractFile: File" style="text;strokeColor=none;fillColor=none;align=left;verticalAlign=top;spacingLeft=4;spacingRight=4;overflow=hidden;rotatable=0;points=[[0,0.5],[1,0.5]];portConstraint=eastwest;whiteSpace=wrap;html=1;" parent="--YtzrklkNBxloeXn2lH-41" vertex="1">
          <mxGeometry y="78" width="240" height="26" as="geometry" />
        </mxCell>
        <mxCell id="--YtzrklkNBxloeXn2lH-73" value="+ datShipmentDate: Date" style="text;strokeColor=none;fillColor=none;align=left;verticalAlign=top;spacingLeft=4;spacingRight=4;overflow=hidden;rotatable=0;points=[[0,0.5],[1,0.5]];portConstraint=eastwest;whiteSpace=wrap;html=1;" parent="--YtzrklkNBxloeXn2lH-41" vertex="1">
          <mxGeometry y="104" width="240" height="26" as="geometry" />
        </mxCell>
        <mxCell id="--YtzrklkNBxloeXn2lH-74" value="+ intAmountType: Integer" style="text;strokeColor=none;fillColor=none;align=left;verticalAlign=top;spacingLeft=4;spacingRight=4;overflow=hidden;rotatable=0;points=[[0,0.5],[1,0.5]];portConstraint=eastwest;whiteSpace=wrap;html=1;" parent="--YtzrklkNBxloeXn2lH-41" vertex="1">
          <mxGeometry y="130" width="240" height="26" as="geometry" />
        </mxCell>
        <mxCell id="--YtzrklkNBxloeXn2lH-75" value="+ strAmountType: Type" style="text;strokeColor=none;fillColor=none;align=left;verticalAlign=top;spacingLeft=4;spacingRight=4;overflow=hidden;rotatable=0;points=[[0,0.5],[1,0.5]];portConstraint=eastwest;whiteSpace=wrap;html=1;" parent="--YtzrklkNBxloeXn2lH-41" vertex="1">
          <mxGeometry y="156" width="240" height="26" as="geometry" />
        </mxCell>
        <mxCell id="--YtzrklkNBxloeXn2lH-76" value="+ intOrderTotal: Integer" style="text;strokeColor=none;fillColor=none;align=left;verticalAlign=top;spacingLeft=4;spacingRight=4;overflow=hidden;rotatable=0;points=[[0,0.5],[1,0.5]];portConstraint=eastwest;whiteSpace=wrap;html=1;" parent="--YtzrklkNBxloeXn2lH-41" vertex="1">
          <mxGeometry y="182" width="240" height="26" as="geometry" />
        </mxCell>
        <mxCell id="--YtzrklkNBxloeXn2lH-47" value="" style="line;strokeWidth=1;fillColor=none;align=left;verticalAlign=middle;spacingTop=-1;spacingLeft=3;spacingRight=3;rotatable=0;labelPosition=right;points=[];portConstraint=eastwest;strokeColor=inherit;" parent="--YtzrklkNBxloeXn2lH-41" vertex="1">
          <mxGeometry y="208" width="240" height="8" as="geometry" />
        </mxCell>
        <mxCell id="9IQNyrEW4V98np8E3aTX-7" style="edgeStyle=orthogonalEdgeStyle;rounded=0;orthogonalLoop=1;jettySize=auto;html=1;endArrow=ERoneToMany;endFill=0;startArrow=ERone;startFill=0;" edge="1" parent="WIyWlLk6GJQsqaUBKTNV-1" source="--YtzrklkNBxloeXn2lH-49" target="--YtzrklkNBxloeXn2lH-62">
          <mxGeometry relative="1" as="geometry" />
        </mxCell>
        <mxCell id="--YtzrklkNBxloeXn2lH-49" value="Отгрузка" style="swimlane;fontStyle=1;align=center;verticalAlign=top;childLayout=stackLayout;horizontal=1;startSize=26;horizontalStack=0;resizeParent=1;resizeParentMax=0;resizeLast=0;collapsible=1;marginBottom=0;whiteSpace=wrap;html=1;" parent="WIyWlLk6GJQsqaUBKTNV-1" vertex="1">
          <mxGeometry x="-919" y="650" width="257" height="164" as="geometry" />
        </mxCell>
        <mxCell id="--YtzrklkNBxloeXn2lH-53" value="+ datShipmentDate: Date" style="text;strokeColor=none;fillColor=none;align=left;verticalAlign=top;spacingLeft=4;spacingRight=4;overflow=hidden;rotatable=0;points=[[0,0.5],[1,0.5]];portConstraint=eastwest;whiteSpace=wrap;html=1;" parent="--YtzrklkNBxloeXn2lH-49" vertex="1">
          <mxGeometry y="26" width="257" height="26" as="geometry" />
        </mxCell>
        <mxCell id="--YtzrklkNBxloeXn2lH-54" value="+ intAmount: Integer" style="text;strokeColor=none;fillColor=none;align=left;verticalAlign=top;spacingLeft=4;spacingRight=4;overflow=hidden;rotatable=0;points=[[0,0.5],[1,0.5]];portConstraint=eastwest;whiteSpace=wrap;html=1;" parent="--YtzrklkNBxloeXn2lH-49" vertex="1">
          <mxGeometry y="52" width="257" height="26" as="geometry" />
        </mxCell>
        <mxCell id="--YtzrklkNBxloeXn2lH-60" value="+ strAmountType: Type" style="text;strokeColor=none;fillColor=none;align=left;verticalAlign=top;spacingLeft=4;spacingRight=4;overflow=hidden;rotatable=0;points=[[0,0.5],[1,0.5]];portConstraint=eastwest;whiteSpace=wrap;html=1;" parent="--YtzrklkNBxloeXn2lH-49" vertex="1">
          <mxGeometry y="78" width="257" height="26" as="geometry" />
        </mxCell>
        <mxCell id="--YtzrklkNBxloeXn2lH-67" value="+ intOrderTotal: Integer" style="text;strokeColor=none;fillColor=none;align=left;verticalAlign=top;spacingLeft=4;spacingRight=4;overflow=hidden;rotatable=0;points=[[0,0.5],[1,0.5]];portConstraint=eastwest;whiteSpace=wrap;html=1;" parent="--YtzrklkNBxloeXn2lH-49" vertex="1">
          <mxGeometry y="104" width="257" height="26" as="geometry" />
        </mxCell>
        <mxCell id="--YtzrklkNBxloeXn2lH-51" value="" style="line;strokeWidth=1;fillColor=none;align=left;verticalAlign=middle;spacingTop=-1;spacingLeft=3;spacingRight=3;rotatable=0;labelPosition=right;points=[];portConstraint=eastwest;strokeColor=inherit;" parent="--YtzrklkNBxloeXn2lH-49" vertex="1">
          <mxGeometry y="130" width="257" height="8" as="geometry" />
        </mxCell>
        <mxCell id="--YtzrklkNBxloeXn2lH-52" value="+ method(type): type" style="text;strokeColor=none;fillColor=none;align=left;verticalAlign=top;spacingLeft=4;spacingRight=4;overflow=hidden;rotatable=0;points=[[0,0.5],[1,0.5]];portConstraint=eastwest;whiteSpace=wrap;html=1;" parent="--YtzrklkNBxloeXn2lH-49" vertex="1">
          <mxGeometry y="138" width="257" height="26" as="geometry" />
        </mxCell>
        <mxCell id="9IQNyrEW4V98np8E3aTX-1" style="edgeStyle=orthogonalEdgeStyle;rounded=0;orthogonalLoop=1;jettySize=auto;html=1;endArrow=ERone;endFill=0;startArrow=ERoneToMany;startFill=0;" edge="1" parent="WIyWlLk6GJQsqaUBKTNV-1" source="--YtzrklkNBxloeXn2lH-62" target="--YtzrklkNBxloeXn2lH-41">
          <mxGeometry relative="1" as="geometry" />
        </mxCell>
        <mxCell id="--YtzrklkNBxloeXn2lH-62" value="Оборудование" style="swimlane;fontStyle=1;align=center;verticalAlign=top;childLayout=stackLayout;horizontal=1;startSize=26;horizontalStack=0;resizeParent=1;resizeParentMax=0;resizeLast=0;collapsible=1;marginBottom=0;whiteSpace=wrap;html=1;" parent="WIyWlLk6GJQsqaUBKTNV-1" vertex="1">
          <mxGeometry x="-570" y="689" width="300" height="86" as="geometry" />
        </mxCell>
        <mxCell id="--YtzrklkNBxloeXn2lH-63" value="+ strEquipmentName: String" style="text;strokeColor=none;fillColor=none;align=left;verticalAlign=top;spacingLeft=4;spacingRight=4;overflow=hidden;rotatable=0;points=[[0,0.5],[1,0.5]];portConstraint=eastwest;whiteSpace=wrap;html=1;" parent="--YtzrklkNBxloeXn2lH-62" vertex="1">
          <mxGeometry y="26" width="300" height="26" as="geometry" />
        </mxCell>
        <mxCell id="--YtzrklkNBxloeXn2lH-68" value="+ strEquipmentKeyName: String" style="text;strokeColor=none;fillColor=none;align=left;verticalAlign=top;spacingLeft=4;spacingRight=4;overflow=hidden;rotatable=0;points=[[0,0.5],[1,0.5]];portConstraint=eastwest;whiteSpace=wrap;html=1;" parent="--YtzrklkNBxloeXn2lH-62" vertex="1">
          <mxGeometry y="52" width="300" height="26" as="geometry" />
        </mxCell>
        <mxCell id="--YtzrklkNBxloeXn2lH-64" value="" style="line;strokeWidth=1;fillColor=none;align=left;verticalAlign=middle;spacingTop=-1;spacingLeft=3;spacingRight=3;rotatable=0;labelPosition=right;points=[];portConstraint=eastwest;strokeColor=inherit;" parent="--YtzrklkNBxloeXn2lH-62" vertex="1">
          <mxGeometry y="78" width="300" height="8" as="geometry" />
        </mxCell>
      </root>
    </mxGraphModel>
  </diagram>
  <diagram id="oP8LDGfSmwsp1DECHlGp" name="dfd(плохо)">
    <mxGraphModel dx="1407" dy="1784" grid="1" gridSize="10" guides="1" tooltips="1" connect="1" arrows="1" fold="1" page="1" pageScale="1" pageWidth="827" pageHeight="1169" math="0" shadow="0">
      <root>
        <mxCell id="0" />
        <mxCell id="1" parent="0" />
        <mxCell id="YxFCUzYlJHOD9JWnXN-a-8" style="edgeStyle=orthogonalEdgeStyle;rounded=0;orthogonalLoop=1;jettySize=auto;html=1;" edge="1" parent="1" source="YxFCUzYlJHOD9JWnXN-a-1" target="YxFCUzYlJHOD9JWnXN-a-2">
          <mxGeometry relative="1" as="geometry" />
        </mxCell>
        <mxCell id="YxFCUzYlJHOD9JWnXN-a-9" value="Регистрация нового клиента" style="edgeLabel;html=1;align=center;verticalAlign=middle;resizable=0;points=[];" vertex="1" connectable="0" parent="YxFCUzYlJHOD9JWnXN-a-8">
          <mxGeometry x="-0.0571" y="-2" relative="1" as="geometry">
            <mxPoint as="offset" />
          </mxGeometry>
        </mxCell>
        <mxCell id="YxFCUzYlJHOD9JWnXN-a-1" value="&lt;div&gt;Данные о клиенте&lt;/div&gt;" style="rounded=0;whiteSpace=wrap;html=1;" vertex="1" parent="1">
          <mxGeometry x="270" y="80" width="120" height="60" as="geometry" />
        </mxCell>
        <mxCell id="YxFCUzYlJHOD9JWnXN-a-6" style="edgeStyle=orthogonalEdgeStyle;rounded=0;orthogonalLoop=1;jettySize=auto;html=1;" edge="1" parent="1" source="YxFCUzYlJHOD9JWnXN-a-2" target="YxFCUzYlJHOD9JWnXN-a-3">
          <mxGeometry relative="1" as="geometry" />
        </mxCell>
        <mxCell id="YxFCUzYlJHOD9JWnXN-a-7" value="&lt;div&gt;Данные о клиенте&lt;/div&gt;" style="edgeLabel;html=1;align=center;verticalAlign=middle;resizable=0;points=[];" vertex="1" connectable="0" parent="YxFCUzYlJHOD9JWnXN-a-6">
          <mxGeometry x="-0.3333" y="-1" relative="1" as="geometry">
            <mxPoint y="4" as="offset" />
          </mxGeometry>
        </mxCell>
        <mxCell id="YxFCUzYlJHOD9JWnXN-a-15" style="edgeStyle=orthogonalEdgeStyle;rounded=0;orthogonalLoop=1;jettySize=auto;html=1;" edge="1" parent="1" source="YxFCUzYlJHOD9JWnXN-a-2" target="YxFCUzYlJHOD9JWnXN-a-1">
          <mxGeometry relative="1" as="geometry">
            <Array as="points">
              <mxPoint x="210" y="250" />
              <mxPoint x="210" y="110" />
            </Array>
          </mxGeometry>
        </mxCell>
        <mxCell id="YxFCUzYlJHOD9JWnXN-a-16" value="&lt;div&gt;Отображение&lt;/div&gt;&lt;div&gt;изменение&lt;/div&gt;" style="edgeLabel;html=1;align=center;verticalAlign=middle;resizable=0;points=[];" vertex="1" connectable="0" parent="YxFCUzYlJHOD9JWnXN-a-15">
          <mxGeometry x="0.1676" y="-1" relative="1" as="geometry">
            <mxPoint x="9" y="-68" as="offset" />
          </mxGeometry>
        </mxCell>
        <mxCell id="YxFCUzYlJHOD9JWnXN-a-2" value="&lt;div&gt;Подсистема регистрации звонков&lt;/div&gt;" style="shape=cube;whiteSpace=wrap;html=1;boundedLbl=1;backgroundOutline=1;darkOpacity=0.05;darkOpacity2=0.1;" vertex="1" parent="1">
          <mxGeometry x="270" y="210" width="120" height="80" as="geometry" />
        </mxCell>
        <mxCell id="YxFCUzYlJHOD9JWnXN-a-3" value="Подсистема хранения информации о клиенте" style="shape=cube;whiteSpace=wrap;html=1;boundedLbl=1;backgroundOutline=1;darkOpacity=0.05;darkOpacity2=0.1;" vertex="1" parent="1">
          <mxGeometry x="270" y="350" width="120" height="80" as="geometry" />
        </mxCell>
        <mxCell id="QIEC7N3XFjH_1Y5vBde8-3" style="edgeStyle=orthogonalEdgeStyle;rounded=0;orthogonalLoop=1;jettySize=auto;html=1;" edge="1" parent="1" source="YxFCUzYlJHOD9JWnXN-a-4" target="QIEC7N3XFjH_1Y5vBde8-2">
          <mxGeometry relative="1" as="geometry" />
        </mxCell>
        <mxCell id="QIEC7N3XFjH_1Y5vBde8-4" value="Отображение остатков" style="edgeLabel;html=1;align=center;verticalAlign=middle;resizable=0;points=[];" vertex="1" connectable="0" parent="QIEC7N3XFjH_1Y5vBde8-3">
          <mxGeometry x="-0.2727" y="-1" relative="1" as="geometry">
            <mxPoint x="17" y="-13" as="offset" />
          </mxGeometry>
        </mxCell>
        <mxCell id="YxFCUzYlJHOD9JWnXN-a-4" value="&lt;div&gt;Подсистема контроля остатков&lt;/div&gt;&amp;nbsp;на складе" style="shape=cube;whiteSpace=wrap;html=1;boundedLbl=1;backgroundOutline=1;darkOpacity=0.05;darkOpacity2=0.1;" vertex="1" parent="1">
          <mxGeometry x="-20" y="-70" width="120" height="80" as="geometry" />
        </mxCell>
        <mxCell id="YxFCUzYlJHOD9JWnXN-a-13" style="edgeStyle=orthogonalEdgeStyle;rounded=0;orthogonalLoop=1;jettySize=auto;html=1;" edge="1" parent="1" source="YxFCUzYlJHOD9JWnXN-a-5" target="YxFCUzYlJHOD9JWnXN-a-1">
          <mxGeometry relative="1" as="geometry" />
        </mxCell>
        <mxCell id="YxFCUzYlJHOD9JWnXN-a-14" value="&lt;div&gt;Отображение&lt;/div&gt;&lt;div&gt;изменение&lt;br&gt;&lt;/div&gt;" style="edgeLabel;html=1;align=center;verticalAlign=middle;resizable=0;points=[];" vertex="1" connectable="0" parent="YxFCUzYlJHOD9JWnXN-a-13">
          <mxGeometry y="1" relative="1" as="geometry">
            <mxPoint y="-16" as="offset" />
          </mxGeometry>
        </mxCell>
        <mxCell id="QIEC7N3XFjH_1Y5vBde8-10" style="edgeStyle=orthogonalEdgeStyle;rounded=0;orthogonalLoop=1;jettySize=auto;html=1;" edge="1" parent="1" source="YxFCUzYlJHOD9JWnXN-a-5" target="QIEC7N3XFjH_1Y5vBde8-9">
          <mxGeometry relative="1" as="geometry" />
        </mxCell>
        <mxCell id="QIEC7N3XFjH_1Y5vBde8-11" value="&lt;div&gt;Отображение&lt;/div&gt;&lt;div&gt;изменение&lt;br&gt;&lt;/div&gt;" style="edgeLabel;html=1;align=center;verticalAlign=middle;resizable=0;points=[];" vertex="1" connectable="0" parent="QIEC7N3XFjH_1Y5vBde8-10">
          <mxGeometry x="0.2286" relative="1" as="geometry">
            <mxPoint as="offset" />
          </mxGeometry>
        </mxCell>
        <mxCell id="YxFCUzYlJHOD9JWnXN-a-5" value="Подсистема задач по заказам клиентов" style="shape=cube;whiteSpace=wrap;html=1;boundedLbl=1;backgroundOutline=1;darkOpacity=0.05;darkOpacity2=0.1;" vertex="1" parent="1">
          <mxGeometry x="490" y="70" width="120" height="80" as="geometry" />
        </mxCell>
        <mxCell id="QIEC7N3XFjH_1Y5vBde8-5" style="edgeStyle=orthogonalEdgeStyle;rounded=0;orthogonalLoop=1;jettySize=auto;html=1;" edge="1" parent="1" source="QIEC7N3XFjH_1Y5vBde8-1" target="QIEC7N3XFjH_1Y5vBde8-2">
          <mxGeometry relative="1" as="geometry" />
        </mxCell>
        <mxCell id="QIEC7N3XFjH_1Y5vBde8-6" value="Соответствование" style="edgeLabel;html=1;align=center;verticalAlign=middle;resizable=0;points=[];" vertex="1" connectable="0" parent="QIEC7N3XFjH_1Y5vBde8-5">
          <mxGeometry y="-1" relative="1" as="geometry">
            <mxPoint y="-4" as="offset" />
          </mxGeometry>
        </mxCell>
        <mxCell id="QIEC7N3XFjH_1Y5vBde8-1" value="Номенклатура товаров" style="rounded=0;whiteSpace=wrap;html=1;" vertex="1" parent="1">
          <mxGeometry x="240" y="-180" width="120" height="60" as="geometry" />
        </mxCell>
        <mxCell id="QIEC7N3XFjH_1Y5vBde8-7" style="edgeStyle=orthogonalEdgeStyle;rounded=0;orthogonalLoop=1;jettySize=auto;html=1;" edge="1" parent="1" source="QIEC7N3XFjH_1Y5vBde8-2" target="YxFCUzYlJHOD9JWnXN-a-4">
          <mxGeometry relative="1" as="geometry">
            <Array as="points">
              <mxPoint x="300" y="50" />
              <mxPoint x="40" y="50" />
            </Array>
          </mxGeometry>
        </mxCell>
        <mxCell id="QIEC7N3XFjH_1Y5vBde8-8" value="Изменение остатков" style="edgeLabel;html=1;align=center;verticalAlign=middle;resizable=0;points=[];" vertex="1" connectable="0" parent="QIEC7N3XFjH_1Y5vBde8-7">
          <mxGeometry x="0.0286" y="2" relative="1" as="geometry">
            <mxPoint y="-12" as="offset" />
          </mxGeometry>
        </mxCell>
        <mxCell id="rJMUX-QzMFwmX_r-6f3v-3" style="edgeStyle=orthogonalEdgeStyle;rounded=0;orthogonalLoop=1;jettySize=auto;html=1;" edge="1" parent="1" source="QIEC7N3XFjH_1Y5vBde8-2" target="QIEC7N3XFjH_1Y5vBde8-9">
          <mxGeometry relative="1" as="geometry" />
        </mxCell>
        <mxCell id="rJMUX-QzMFwmX_r-6f3v-4" value="Принадлежат" style="edgeLabel;html=1;align=center;verticalAlign=middle;resizable=0;points=[];" vertex="1" connectable="0" parent="rJMUX-QzMFwmX_r-6f3v-3">
          <mxGeometry x="-0.2821" y="4" relative="1" as="geometry">
            <mxPoint x="16" y="-5" as="offset" />
          </mxGeometry>
        </mxCell>
        <mxCell id="QIEC7N3XFjH_1Y5vBde8-2" value="Товары" style="rounded=0;whiteSpace=wrap;html=1;" vertex="1" parent="1">
          <mxGeometry x="240" y="-60" width="120" height="60" as="geometry" />
        </mxCell>
        <mxCell id="rJMUX-QzMFwmX_r-6f3v-1" style="edgeStyle=orthogonalEdgeStyle;rounded=0;orthogonalLoop=1;jettySize=auto;html=1;" edge="1" parent="1" source="QIEC7N3XFjH_1Y5vBde8-9" target="YxFCUzYlJHOD9JWnXN-a-5">
          <mxGeometry relative="1" as="geometry">
            <Array as="points">
              <mxPoint x="640" y="-30" />
              <mxPoint x="640" y="110" />
            </Array>
          </mxGeometry>
        </mxCell>
        <mxCell id="rJMUX-QzMFwmX_r-6f3v-2" value="&lt;div&gt;Хранение&lt;/div&gt;&lt;div&gt;плана&lt;/div&gt;" style="edgeLabel;html=1;align=center;verticalAlign=middle;resizable=0;points=[];" vertex="1" connectable="0" parent="rJMUX-QzMFwmX_r-6f3v-1">
          <mxGeometry x="-0.02" relative="1" as="geometry">
            <mxPoint as="offset" />
          </mxGeometry>
        </mxCell>
        <mxCell id="QIEC7N3XFjH_1Y5vBde8-9" value="План работ" style="rounded=0;whiteSpace=wrap;html=1;" vertex="1" parent="1">
          <mxGeometry x="490" y="-60" width="120" height="60" as="geometry" />
        </mxCell>
      </root>
    </mxGraphModel>
  </diagram>
  <diagram id="r2LK368l3BQFZZXlh3Fq" name="dfd">
    <mxGraphModel dx="880" dy="462" grid="1" gridSize="10" guides="1" tooltips="1" connect="1" arrows="1" fold="1" page="1" pageScale="1" pageWidth="827" pageHeight="1169" math="0" shadow="0">
      <root>
        <mxCell id="0" />
        <mxCell id="1" parent="0" />
        <mxCell id="lVG5VSSU5G9dXI6mg3ds-1" style="edgeStyle=orthogonalEdgeStyle;rounded=0;orthogonalLoop=1;jettySize=auto;html=1;" edge="1" parent="1" source="CvQNnKBFJoLLAGQ8R71f-1" target="CvQNnKBFJoLLAGQ8R71f-2">
          <mxGeometry relative="1" as="geometry" />
        </mxCell>
        <mxCell id="lVG5VSSU5G9dXI6mg3ds-2" value="Данные о клиентах" style="edgeLabel;html=1;align=center;verticalAlign=middle;resizable=0;points=[];" vertex="1" connectable="0" parent="lVG5VSSU5G9dXI6mg3ds-1">
          <mxGeometry x="-0.0909" y="-2" relative="1" as="geometry">
            <mxPoint as="offset" />
          </mxGeometry>
        </mxCell>
        <mxCell id="CvQNnKBFJoLLAGQ8R71f-1" value="&lt;div&gt;Подсистема регистрации звонков&lt;/div&gt;" style="shape=cube;whiteSpace=wrap;html=1;boundedLbl=1;backgroundOutline=1;darkOpacity=0.05;darkOpacity2=0.1;" vertex="1" parent="1">
          <mxGeometry x="280" y="200" width="120" height="80" as="geometry" />
        </mxCell>
        <mxCell id="lVG5VSSU5G9dXI6mg3ds-4" style="edgeStyle=orthogonalEdgeStyle;rounded=0;orthogonalLoop=1;jettySize=auto;html=1;" edge="1" parent="1" source="CvQNnKBFJoLLAGQ8R71f-2" target="lVG5VSSU5G9dXI6mg3ds-3">
          <mxGeometry relative="1" as="geometry" />
        </mxCell>
        <mxCell id="lVG5VSSU5G9dXI6mg3ds-5" value="Интерфейс с клиентами" style="edgeLabel;html=1;align=center;verticalAlign=middle;resizable=0;points=[];" vertex="1" connectable="0" parent="lVG5VSSU5G9dXI6mg3ds-4">
          <mxGeometry x="0.2863" y="-2" relative="1" as="geometry">
            <mxPoint x="21" y="-8" as="offset" />
          </mxGeometry>
        </mxCell>
        <mxCell id="rTH2lG7dEELTnSasHVlp-1" style="edgeStyle=orthogonalEdgeStyle;rounded=0;orthogonalLoop=1;jettySize=auto;html=1;" edge="1" parent="1" source="CvQNnKBFJoLLAGQ8R71f-2" target="CvQNnKBFJoLLAGQ8R71f-4">
          <mxGeometry relative="1" as="geometry" />
        </mxCell>
        <mxCell id="rTH2lG7dEELTnSasHVlp-2" value="Данные клиента" style="edgeLabel;html=1;align=center;verticalAlign=middle;resizable=0;points=[];" vertex="1" connectable="0" parent="rTH2lG7dEELTnSasHVlp-1">
          <mxGeometry x="-0.1139" relative="1" as="geometry">
            <mxPoint x="2" y="-9" as="offset" />
          </mxGeometry>
        </mxCell>
        <mxCell id="CvQNnKBFJoLLAGQ8R71f-2" value="Подсистема хранения информации о клиенте" style="shape=cube;whiteSpace=wrap;html=1;boundedLbl=1;backgroundOutline=1;darkOpacity=0.05;darkOpacity2=0.1;" vertex="1" parent="1">
          <mxGeometry x="280" y="330" width="120" height="80" as="geometry" />
        </mxCell>
        <mxCell id="rTH2lG7dEELTnSasHVlp-4" style="edgeStyle=orthogonalEdgeStyle;rounded=0;orthogonalLoop=1;jettySize=auto;html=1;" edge="1" parent="1" source="CvQNnKBFJoLLAGQ8R71f-3" target="CvQNnKBFJoLLAGQ8R71f-4">
          <mxGeometry relative="1" as="geometry" />
        </mxCell>
        <mxCell id="rTH2lG7dEELTnSasHVlp-5" value="&lt;div&gt;Количество&lt;/div&gt;&lt;div&gt;&amp;nbsp;оборудования&lt;/div&gt;" style="edgeLabel;html=1;align=center;verticalAlign=middle;resizable=0;points=[];" vertex="1" connectable="0" parent="rTH2lG7dEELTnSasHVlp-4">
          <mxGeometry x="-0.1654" y="1" relative="1" as="geometry">
            <mxPoint as="offset" />
          </mxGeometry>
        </mxCell>
        <mxCell id="CvQNnKBFJoLLAGQ8R71f-3" value="&lt;div&gt;Подсистема контроля остатков&lt;/div&gt;&amp;nbsp;на складе" style="shape=cube;whiteSpace=wrap;html=1;boundedLbl=1;backgroundOutline=1;darkOpacity=0.05;darkOpacity2=0.1;" vertex="1" parent="1">
          <mxGeometry x="510" y="50" width="120" height="80" as="geometry" />
        </mxCell>
        <mxCell id="rTH2lG7dEELTnSasHVlp-7" style="edgeStyle=orthogonalEdgeStyle;rounded=0;orthogonalLoop=1;jettySize=auto;html=1;" edge="1" parent="1" source="CvQNnKBFJoLLAGQ8R71f-4" target="rTH2lG7dEELTnSasHVlp-6">
          <mxGeometry relative="1" as="geometry" />
        </mxCell>
        <mxCell id="rTH2lG7dEELTnSasHVlp-8" value="Смета" style="edgeLabel;html=1;align=center;verticalAlign=middle;resizable=0;points=[];" vertex="1" connectable="0" parent="rTH2lG7dEELTnSasHVlp-7">
          <mxGeometry x="-0.2327" relative="1" as="geometry">
            <mxPoint x="8" y="-8" as="offset" />
          </mxGeometry>
        </mxCell>
        <mxCell id="CvQNnKBFJoLLAGQ8R71f-4" value="Подсистема задач по заказам клиентов" style="shape=cube;whiteSpace=wrap;html=1;boundedLbl=1;backgroundOutline=1;darkOpacity=0.05;darkOpacity2=0.1;" vertex="1" parent="1">
          <mxGeometry x="510" y="330" width="120" height="80" as="geometry" />
        </mxCell>
        <mxCell id="CvQNnKBFJoLLAGQ8R71f-10" style="edgeStyle=orthogonalEdgeStyle;rounded=0;orthogonalLoop=1;jettySize=auto;html=1;" edge="1" parent="1" source="CvQNnKBFJoLLAGQ8R71f-5" target="CvQNnKBFJoLLAGQ8R71f-8">
          <mxGeometry relative="1" as="geometry" />
        </mxCell>
        <mxCell id="CvQNnKBFJoLLAGQ8R71f-11" value="Данные о клиенте" style="edgeLabel;html=1;align=center;verticalAlign=middle;resizable=0;points=[];" vertex="1" connectable="0" parent="CvQNnKBFJoLLAGQ8R71f-10">
          <mxGeometry x="-0.1601" y="-1" relative="1" as="geometry">
            <mxPoint x="32" y="-9" as="offset" />
          </mxGeometry>
        </mxCell>
        <mxCell id="CvQNnKBFJoLLAGQ8R71f-5" value="Клиент" style="rounded=0;whiteSpace=wrap;html=1;" vertex="1" parent="1">
          <mxGeometry x="280" y="110" width="120" height="60" as="geometry" />
        </mxCell>
        <mxCell id="CvQNnKBFJoLLAGQ8R71f-12" style="edgeStyle=orthogonalEdgeStyle;rounded=0;orthogonalLoop=1;jettySize=auto;html=1;" edge="1" parent="1" source="CvQNnKBFJoLLAGQ8R71f-8" target="CvQNnKBFJoLLAGQ8R71f-1">
          <mxGeometry relative="1" as="geometry" />
        </mxCell>
        <mxCell id="CvQNnKBFJoLLAGQ8R71f-13" value="Запрос в БД" style="edgeLabel;html=1;align=center;verticalAlign=middle;resizable=0;points=[];" vertex="1" connectable="0" parent="CvQNnKBFJoLLAGQ8R71f-12">
          <mxGeometry x="-0.069" relative="1" as="geometry">
            <mxPoint y="-10" as="offset" />
          </mxGeometry>
        </mxCell>
        <mxCell id="CvQNnKBFJoLLAGQ8R71f-8" value="Секретарь" style="rounded=0;whiteSpace=wrap;html=1;" vertex="1" parent="1">
          <mxGeometry x="70" y="210" width="120" height="60" as="geometry" />
        </mxCell>
        <mxCell id="lVG5VSSU5G9dXI6mg3ds-7" style="edgeStyle=orthogonalEdgeStyle;rounded=0;orthogonalLoop=1;jettySize=auto;html=1;" edge="1" parent="1" source="lVG5VSSU5G9dXI6mg3ds-3" target="CvQNnKBFJoLLAGQ8R71f-2">
          <mxGeometry relative="1" as="geometry">
            <Array as="points">
              <mxPoint x="80" y="430" />
              <mxPoint x="340" y="430" />
            </Array>
          </mxGeometry>
        </mxCell>
        <mxCell id="lVG5VSSU5G9dXI6mg3ds-8" value="Изменения в данные клиентов" style="edgeLabel;html=1;align=center;verticalAlign=middle;resizable=0;points=[];" vertex="1" connectable="0" parent="lVG5VSSU5G9dXI6mg3ds-7">
          <mxGeometry x="-0.2842" y="-1" relative="1" as="geometry">
            <mxPoint x="38" y="-11" as="offset" />
          </mxGeometry>
        </mxCell>
        <mxCell id="lVG5VSSU5G9dXI6mg3ds-3" value="Менеджер" style="rounded=0;whiteSpace=wrap;html=1;" vertex="1" parent="1">
          <mxGeometry x="20" y="340" width="120" height="60" as="geometry" />
        </mxCell>
        <mxCell id="rTH2lG7dEELTnSasHVlp-6" value="Мастер" style="rounded=0;whiteSpace=wrap;html=1;" vertex="1" parent="1">
          <mxGeometry x="720" y="340" width="120" height="60" as="geometry" />
        </mxCell>
        <mxCell id="rTH2lG7dEELTnSasHVlp-10" style="edgeStyle=orthogonalEdgeStyle;rounded=0;orthogonalLoop=1;jettySize=auto;html=1;" edge="1" parent="1" source="rTH2lG7dEELTnSasHVlp-9" target="CvQNnKBFJoLLAGQ8R71f-4">
          <mxGeometry relative="1" as="geometry" />
        </mxCell>
        <mxCell id="rTH2lG7dEELTnSasHVlp-9" value="Заказы" style="rounded=0;whiteSpace=wrap;html=1;" vertex="1" parent="1">
          <mxGeometry x="510" y="460" width="120" height="60" as="geometry" />
        </mxCell>
        <mxCell id="rTH2lG7dEELTnSasHVlp-12" style="edgeStyle=orthogonalEdgeStyle;rounded=0;orthogonalLoop=1;jettySize=auto;html=1;entryX=0.741;entryY=0.991;entryDx=0;entryDy=0;entryPerimeter=0;" edge="1" parent="1" source="rTH2lG7dEELTnSasHVlp-11" target="CvQNnKBFJoLLAGQ8R71f-2">
          <mxGeometry relative="1" as="geometry" />
        </mxCell>
        <mxCell id="rTH2lG7dEELTnSasHVlp-11" value="&lt;div&gt;Данные о клиентах&lt;/div&gt;" style="rounded=0;whiteSpace=wrap;html=1;" vertex="1" parent="1">
          <mxGeometry x="309" y="480" width="120" height="60" as="geometry" />
        </mxCell>
        <mxCell id="rTH2lG7dEELTnSasHVlp-14" style="edgeStyle=orthogonalEdgeStyle;rounded=0;orthogonalLoop=1;jettySize=auto;html=1;" edge="1" parent="1" source="rTH2lG7dEELTnSasHVlp-13" target="CvQNnKBFJoLLAGQ8R71f-1">
          <mxGeometry relative="1" as="geometry" />
        </mxCell>
        <mxCell id="rTH2lG7dEELTnSasHVlp-13" value="Интерфейс регистрации" style="rounded=0;whiteSpace=wrap;html=1;" vertex="1" parent="1">
          <mxGeometry x="414" y="210" width="120" height="60" as="geometry" />
        </mxCell>
        <mxCell id="rTH2lG7dEELTnSasHVlp-15" value="Интерфейс БД" style="rounded=0;whiteSpace=wrap;html=1;" vertex="1" parent="1">
          <mxGeometry x="160" y="480" width="120" height="60" as="geometry" />
        </mxCell>
        <mxCell id="rTH2lG7dEELTnSasHVlp-16" style="edgeStyle=orthogonalEdgeStyle;rounded=0;orthogonalLoop=1;jettySize=auto;html=1;entryX=0;entryY=0;entryDx=70;entryDy=80;entryPerimeter=0;" edge="1" parent="1" source="rTH2lG7dEELTnSasHVlp-15" target="CvQNnKBFJoLLAGQ8R71f-2">
          <mxGeometry relative="1" as="geometry" />
        </mxCell>
      </root>
    </mxGraphModel>
  </diagram>
</mxfile>
